<?xml version="1.0" encoding="UTF-8" standalone="no"?>
<svg
   width="469"
   height="469"
   viewBox="0 0 469 469"
   version="1.1"
   id="aksara"
   xml:space="preserve"
   xmlns="http://www.w3.org/2000/svg"
   xmlns:svg="http://www.w3.org/2000/svg"><defs
   id="defs1" />
<rect
   fill="#cef4feff"
   width="469"
   height="469"
   x="0"
   y="0"
   rx="101"
   ry="101"
   id="rect1"
   style="display:inline" />
<g id="g1">
<path
   d="m 314.90769,282.9771 47.60007,-19.81706 32.89654,69.85513 c -57.99848,-4.27791 -51.27003,16.42737 -80.49661,-50.03807 z"
   id="path11"
   fill="#477fbe"
   style="stroke-width:1.57125" /><path
   d="m 246.80996,185.84208 24.57298,0.35132 -41.58504,111.37363 h -25.32907 z"
   id="path14"
   fill="#4780be"
   style="stroke-width:1.57125" />
<path
   d="m 335.74653,206.58224 -69.70168,-28.51182 -25.48158,-52.01978 26.52137,-55.116062 c 6.92331,2.030888 46.01446,90.506082 68.66189,135.647662 z"
   id="path10"
   fill="#477ebe"
   style="stroke-width:1.57125" />
<path
   d="m 280.8341,203.76023 0.7561,18.26949 46.49964,18.26949 -47.6338,19.67483 0.37806,17.56682 71.45066,-30.21493 0.75611,-13.35077 z"
   id="path13"
   style="stroke-width:1.57125" /><path
   d="m 127.34746,234.32649 0.37805,12.99944 71.07264,29.86359 1.51217,-16.51282 -48.38987,-20.37749 46.49964,-19.3235 0.75609,-16.86415 z"
   id="path12"
   style="stroke-width:1.57125" />

<path
   d="M 143.40771,207.67228 215.37489,177.9467 267.08464,70.934578 c -1.04484,-4.519087 -51.45193,-9.251842 -58.10684,3.467987 z"
   id="path9"
   style="stroke-width:1.57125" /><path
   d="m 118.81761,263.65547 47.513,19.32163 c -30.73667,61.26046 -17.75737,48.87488 -81.097681,50.03809 z"
   id="path8"
   style="stroke-width:1.57125" /><text
   xml:space="preserve"
   style="font-size:103.728px;font-family:Montserrat;-inkscape-font-specification:'Montserrat, @wght=652';font-variation-settings:'wght' 652;fill:#373d43;fill-opacity:1;fill-rule:nonzero;stroke-width:5.3406"
   x="38.733719"
   y="463.47357"
   id="text14"
   transform="scale(1.0634782,0.94031076)"> <tspan
   id="tspan14"
   x="38.733719"
   y="463.47357"
   style="stroke-width:5.3406">ak</tspan></text>
<text
   xml:space="preserve"
   style="font-size:96.4201px;font-family:Montserrat;-inkscape-font-specification:'Montserrat, @wght=652';font-variation-settings:'wght' 652;fill:#4781be;fill-opacity:1;fill-rule:nonzero;stroke-width:4.96437"
   x="162.38692"
   y="471.07266"
   id="text15"
   transform="scale(1.0844721,0.92210764)"> <tspan
   id="tspan15"
   x="162.38692"
   y="471.07266"
   style="stroke-width:4.96437">'sara</tspan></text>
</g></svg>
